<svg xmlns="http://www.w3.org/2000/svg" viewBox="0 0 64 64" width="512" height="512">
    <path
        d="M61 2h-6a1 1 0 00-1 1v.382l-2.131-1.066A3.014 3.014 0 0050.528 2H35.872A3 3 0 0034 2.658L29.819 6H13a1 1 0 00-1 1v16a1 1 0 001 1h30a1 1 0 001-1v-7.552a9.026 9.026 0 007.943-.648l1.337-.8H54v1a1 1 0 001 1h6a1 1 0 001-1V3a1 1 0 00-1-1zM14 22V8h23.929l-1.121 1.122a3 3 0 004.242 4.242l.95-.95V22zm38.994-10a.993.993 0 00-.509.143l-1.571.942a7.03 7.03 0 01-6.24.482L44 13.293v-2.879l1.27-1.27.516.172a7.044 7.044 0 004.428 0l1.1-.367a1 1 0 00-.632-1.9l-1.1.368a5.029 5.029 0 01-3.162 0l-1.1-.368a1 1 0 00-1.023.242l-2 2-2.661 2.659a1 1 0 01-1.414 0 1 1 0 010-1.414l3.886-3.887a1 1 0 00-1.414-1.414L39.929 6h-6.908l2.226-1.781A1 1 0 0135.872 4h14.656a1.019 1.019 0 01.447.105L54 5.618v6.375zM60 14h-4V4h4z" />
    <path
        d="M28 12a1 1 0 011 1h2a3 3 0 00-2-2.816V9h-2v1.184A2.993 2.993 0 0028 16a1 1 0 11-1 1h-2a3 3 0 002 2.816V21h2v-1.184A2.993 2.993 0 0028 14a1 1 0 010-2zM22 14h-2a1 1 0 000 2h2a1 1 0 000-2zM36 14h-2a1 1 0 000 2h2a1 1 0 000-2zM43.458 49.773a2.989 2.989 0 00-4.1-1.1l-6.427 3.7A3 3 0 0030 50h-7.7l-.2-.134A10.968 10.968 0 0010 49.8V49a1 1 0 00-1-1H3a1 1 0 00-1 1v12a1 1 0 001 1h6a1 1 0 001-1v-.136l.934.62A2.98 2.98 0 0012.61 62h14.85a2.922 2.922 0 001.5-.4l13.4-7.73a3.017 3.017 0 001.5-2.606 2.97 2.97 0 00-.402-1.491zM8 60H4V50h4zm33.36-7.866l-13.415 7.739a.931.931 0 01-.485.127H12.61a.977.977 0 01-.557-.173L10 58.464V52a1 1 0 00.554-.167l.454-.3a8.976 8.976 0 019.985 0l.453.3A1 1 0 0022 52h8a1 1 0 010 2h-6a1 1 0 000 2h6a2.976 2.976 0 001.981-.764l8.387-4.836a.968.968 0 01.746-.1.994.994 0 01.611.472.966.966 0 01.135.488 1.011 1.011 0 01-.5.874z" />
    <path
        d="M41 28H15a1 1 0 00-1 1v18a1 1 0 001 1h26a1 1 0 001-1V29a1 1 0 00-1-1zm-12 2v4h-2v-4zm11 16H16V30h9v5a1 1 0 001 1h4a1 1 0 001-1v-5h9z" />
    <path
        d="M22 40h-4a1 1 0 000 2h4a1 1 0 000-2zM26 40h-1a1 1 0 000 2h1a1 1 0 000-2zM22 43h-4a1 1 0 000 2h4a1 1 0 000-2zM26 43h-1a1 1 0 000 2h1a1 1 0 000-2z" />
</svg>