<svg version="1.0" xmlns="http://www.w3.org/2000/svg" width="133.333" height="133.333" viewBox="0 0 100 100">
    <path
        d="M14 50v46h52.5l9.8-9.8 9.7-9.7V4H14v46zm68-9v33H64v18H18V8h64v33zm-3 37.3c0 .1-2.5 2.7-5.5 5.7L68 89.4V78h5.5c3 0 5.5.1 5.5.3z" />
    <path
        d="M30 28c0 1.6.7 2 3 2s3-.4 3-2-.7-2-3-2-3 .4-3 2zM42 28c0 1.9.7 2 14 2s14-.1 14-2-.7-2-14-2-14 .1-14 2zM30 40c0 1.6.7 2 3 2s3-.4 3-2-.7-2-3-2-3 .4-3 2zM42 40c0 1.9.7 2 14 2s14-.1 14-2-.7-2-14-2-14 .1-14 2zM30 52c0 1.6.7 2 3 2s3-.4 3-2-.7-2-3-2-3 .4-3 2zM42 52c0 1.9.7 2 14 2s14-.1 14-2-.7-2-14-2-14 .1-14 2zM30 64c0 1.6.7 2 3 2s3-.4 3-2-.7-2-3-2-3 .4-3 2zM42 64c0 1.9.7 2 14 2s14-.1 14-2-.7-2-14-2-14 .1-14 2z" />
</svg>